<svg xmlns="http://www.w3.org/2000/svg" xmlns:xlink="http://www.w3.org/1999/xlink" width="265.74" height="114.469" viewBox="0 0 265.74 114.469"><defs><clipPath id="a"><rect width="265.739" height="114.468" fill="none"/></clipPath></defs><g transform="translate(22354.227 23493)"><path d="M28.735,41.727a1.68,1.68,0,0,0-.315-2.354,17.527,17.527,0,0,0-10.733-3.627A17.687,17.687,0,1,0,28.156,67.69a1.679,1.679,0,0,0-1.989-2.706,14.329,14.329,0,1,1,.214-22.942,1.681,1.681,0,0,0,2.354-.315" transform="translate(-22354.227 -23493)" fill="#50bbbb"/><path d="M48.139,71.12a1.679,1.679,0,0,0,1.679-1.679V37.675a1.679,1.679,0,0,0-3.358,0V69.441a1.679,1.679,0,0,0,1.679,1.679" transform="translate(-22354.227 -23493)" fill="#50bbbb"/><path d="M172.995,36.91A1.683,1.683,0,0,0,171.5,36h-.009a1.681,1.681,0,0,0-1.5.933L154.238,68.694a1.678,1.678,0,0,0,.759,2.25,1.653,1.653,0,0,0,.745.176,1.68,1.68,0,0,0,1.5-.932l14.276-28.78,14.741,28.8a1.679,1.679,0,0,0,2.989-1.532Z" transform="translate(-22354.227 -23493)" fill="#50bbbb"/><path d="M265.555,68.676,249.3,36.911A1.677,1.677,0,0,0,247.8,36h-.009a1.677,1.677,0,0,0-1.494.933L230.54,68.695a1.679,1.679,0,1,0,3.008,1.492l14.278-28.78,14.738,28.8a1.68,1.68,0,0,0,2.991-1.53" transform="translate(-22354.227 -23493)" fill="#50bbbb"/><path d="M225.706,39.355a1.68,1.68,0,0,0,0-3.359H193.69a1.68,1.68,0,0,0,0,3.359h14.079V69.441a1.68,1.68,0,0,0,3.359,0V39.355Z" transform="translate(-22354.227 -23493)" fill="#50bbbb"/><path d="M127,35.746H114.751a1.68,1.68,0,0,0,0,3.359H127a14.329,14.329,0,0,1,0,28.657H114.751a1.679,1.679,0,0,0,0,3.358H127a17.687,17.687,0,0,0,0-35.374" transform="translate(-22354.227 -23493)" fill="#50bbbb"/><path d="M101.074,37.625A1.679,1.679,0,0,0,99.395,39.3V51.555a14.328,14.328,0,0,1-28.657,0V39.3a1.679,1.679,0,0,0-3.358,0V51.555a17.687,17.687,0,1,0,35.373,0V39.3a1.679,1.679,0,0,0-1.679-1.679" transform="translate(-22354.227 -23493)" fill="#50bbbb"/><rect width="265.739" height="114.468" transform="translate(-22354.227 -23493)" fill="none"/><text transform="translate(-22329.971 -23394.158)" fill="#fff" font-size="6.309" font-family="Brevia-Medium, Brevia" font-weight="500"><tspan x="0" y="0" letter-spacing="0.32em">SI</tspan><tspan y="0" letter-spacing="0.303em">S</tspan><tspan y="0" letter-spacing="0.32em">T</tspan><tspan y="0" letter-spacing="0.319em">EM</tspan><tspan y="0" letter-spacing="0.272em">A</tspan><tspan y="0" xml:space="preserve" letter-spacing="0.32em"> INT</tspan><tspan y="0" letter-spacing="0.31em">E</tspan><tspan y="0" letter-spacing="0.32em">GR</tspan><tspan y="0" letter-spacing="0.319em">A</tspan><tspan y="0" letter-spacing="0.32em">L D</tspan><tspan y="0" letter-spacing="0.319em">E</tspan><tspan y="0" letter-spacing="0.272em"> </tspan><tspan y="0" letter-spacing="0.259em">A</tspan><tspan y="0" letter-spacing="0.32em">T</tspan><tspan y="0" letter-spacing="0.319em">E</tspan><tspan y="0" letter-spacing="0.32em">N</tspan><tspan y="0" letter-spacing="0.319em">CI</tspan><tspan y="0" letter-spacing="0.32em">ÓN </tspan><tspan y="0" letter-spacing="0.319em">CI</tspan><tspan y="0" letter-spacing="0.32em">U</tspan><tspan y="0" letter-spacing="0.302em">D</tspan><tspan y="0" letter-spacing="0.319em">A</tspan><tspan y="0" letter-spacing="0.302em">D</tspan><tspan y="0" letter-spacing="0.32em">A</tspan><tspan y="0" letter-spacing="0.319em">N</tspan><tspan y="0">A</tspan></text><g transform="translate(-22354.227 -23493)" clip-path="url(#a)"><path d="M15.162,51.777a2.126,2.126,0,1,0,3.007,0,2.127,2.127,0,0,0-3.007,0" fill="#17736e"/><path d="M84.623,82.947a2.126,2.126,0,1,0,2.126,2.126,2.126,2.126,0,0,0-2.126-2.126" fill="#17736e"/><path d="M171.75,67.315a2.126,2.126,0,1,0,2.126,2.126,2.126,2.126,0,0,0-2.126-2.126" fill="#17736e"/><path d="M247.828,67.315a2.126,2.126,0,1,0,2.126,2.126,2.126,2.126,0,0,0-2.126-2.126" fill="#17736e"/><path d="M179.349,32.923a2.126,2.126,0,1,0-2.126-2.126,2.126,2.126,0,0,0,2.126,2.126" fill="#17736e"/><path d="M152.531,2.126A2.126,2.126,0,1,0,150.4,4.252a2.126,2.126,0,0,0,2.126-2.126" fill="#17736e"/><path d="M225.707,80.821a2.126,2.126,0,1,0-2.126,2.126,2.126,2.126,0,0,0,2.126-2.126" fill="#17736e"/><path d="M112.5,110.989a2.126,2.126,0,1,0,2.993-.287,2.126,2.126,0,0,0-2.993.287" fill="#17736e"/><path d="M252.11,13.024a2.126,2.126,0,1,0-2.993.287,2.126,2.126,0,0,0,2.993-.287" fill="#17736e"/><path d="M46.5,12.445a2.126,2.126,0,1,0,2.993-.287,2.125,2.125,0,0,0-2.993.287" fill="#17736e"/><path d="M94.267,24.169a2.126,2.126,0,1,0-2.126-2.126,2.126,2.126,0,0,0,2.126,2.126" fill="#17736e"/><path d="M116.255,54.7a2.126,2.126,0,1,0-3.007,0,2.127,2.127,0,0,0,3.007,0" fill="#17736e"/></g></g></svg>